<svg xmlns="http://www.w3.org/2000/svg" viewBox="0 0 24 24" fill="#ffffff">
  <path d="M12 .5C5.73.5.5 5.73.5 12c0 5.08 3.29 9.37 7.86 10.88.58.1.79-.25.79-.55 0-.27-.01-1.01-.01-1.99-3.2.7-3.87-1.54-3.87-1.54-.53-1.35-1.29-1.7-1.29-1.7-1.06-.72.08-.71.08-.71 1.17.08 1.79 1.2 1.79 1.2 1.04 1.78 2.73 1.27 3.4.97.11-.75.41-1.27.75-1.56-2.56-.29-5.26-1.28-5.26-5.7 0-1.26.45-2.3 1.18-3.12-.12-.29-.51-1.45.11-3.02 0 0 .96-.31 3.15 1.19.91-.25 1.89-.37 2.86-.38.97.01 1.95.13 2.86.38 2.18-1.5 3.14-1.19 3.14-1.19.63 1.57.24 2.73.12 3.02.74.82 1.18 1.86 1.18 3.12 0 4.43-2.7 5.4-5.28 5.68.43.37.81 1.1.81 2.22 0 1.6-.01 2.89-.01 3.28 0 .3.21.66.8.55 4.56-1.51 7.84-5.8 7.84-10.88C23.5 5.73 18.27.5 12 .5z"></path>
</svg>
